<?xml version="1.0" encoding="UTF-8"?>
<svg id="Camada_1" xmlns="http://www.w3.org/2000/svg" version="1.1" viewBox="0 0 765.31 150.57">
  <!-- Generator: Adobe Illustrator 30.5.0, SVG Export Plug-In . SVG Version: 2.1.4 Build 64)  -->
  <defs>
    <style>
      .st0 {
        fill: #1e1e1e;
      }
    </style>
  </defs>
  <path class="st0" d="M443.35,36.19h-21.89c-2.4,0-4.35,1.95-4.34,4.36l.42,105.7c0,2.39,1.95,4.32,4.34,4.32h21.04c2.39,0,4.33-1.93,4.34-4.32l.43-105.7c0-2.4-1.94-4.36-4.34-4.36Z"/>
  <path class="st0" d="M622.81,82.02c-5.14-4.55-11.67-6.83-19.59-6.83-8.53,0-17.14,1.21-25.83,3.62-1.36.38-2.2,1.73-1.99,3.12l.78,5.04c.25,1.62,1.84,2.68,3.44,2.28,7.09-1.76,13.71-2.63,19.89-2.63s10.36,1.39,13.28,4.15c2.92,2.77,4.38,6.33,4.38,10.68v5.49c-6.43-.69-11.42-1.04-14.99-1.04-20.97,0-31.46,7.57-31.46,22.7,0,6.73,2.47,12.07,7.42,16.03,4.94,3.96,11.33,5.94,19.14,5.94,5.44,0,11.65-.99,18.62-2.97,5.85-1.66,10.21-3.25,13.11-4.77.93-.49,1.51-1.44,1.51-2.49v-41.12c0-6.92-2.57-12.66-7.72-17.21ZM617.17,136.32c-6.33,3.17-12.56,4.75-18.7,4.75-4.45,0-8.14-1.09-11.05-3.26-2.92-2.17-4.38-5.24-4.38-9.2,0-9.1,7.12-13.65,21.37-13.65,5.74,0,9.99.3,12.76.89v20.48Z"/>
  <path class="st0" d="M700.89,37.8h-8.05c-1.55,0-2.8,1.25-2.8,2.8v36.23c-4.55-1.19-9.25-1.78-14.1-1.78-12.66,0-22.16,3.49-28.49,10.46-6.33,6.97-9.5,16.2-9.5,27.67s3.09,20.33,9.27,27.15c6.18,6.83,15.8,10.24,28.86,10.24,8.56,0,17.12-1.37,25.68-4.11,1.15-.37,1.92-1.45,1.92-2.66V40.6c0-1.55-1.25-2.8-2.8-2.8ZM690.04,135.73c-4.55,1.68-9.15,2.52-13.8,2.52-8.21,0-14.3-2.32-18.25-6.97-3.96-4.65-5.93-10.78-5.94-18.39,0-14.58,11.62-26.15,26.2-26.12,3.93,0,7.86.55,11.79,1.63v47.33Z"/>
  <path class="st0" d="M759.3,114.45c-4.01-2.75-10.87-5.26-20.57-7.52-.28-.1-.7-.19-1.25-.29-.05,0-.11-.02-.17-.03-5.39-1.29-9.26-2.59-11.62-3.88-2.37-1.3-3.55-3.5-3.55-6.61,0-3.26,1.68-5.81,5.04-7.64,3.36-1.83,7.81-2.69,13.35-2.6,5.36.09,10.64,1.23,15.85,3.43,1.43.6,3.07-.04,3.68-1.46l1.84-4.3c.59-1.38-.01-2.99-1.37-3.64-6.8-3.24-13.91-4.86-21.34-4.86-8.81,0-15.88,1.85-21.22,5.56-5.34,3.71-8.01,9.13-8.01,16.25,0,6.23,2.08,10.86,6.23,13.87,4.16,3.02,10.39,5.42,18.7,7.2,2.41.58,4.08.98,4.99,1.2.92.22,2.29.55,4.12.99,1.83.44,3.1.88,3.79,1.33.69.45,1.51,1.01,2.45,1.7.94.69,1.56,1.46,1.86,2.3.3.84.45,1.85.45,3.04,0,3.75-1.76,6.42-5.27,8-3.51,1.58-7.3,2.37-11.35,2.37-6.39,0-12.78-1.2-19.17-3.6-1.4-.53-2.98.15-3.56,1.53l-1.79,4.27c-.57,1.37,0,2.97,1.35,3.6,3.06,1.44,6.6,2.64,10.62,3.62,5.09,1.24,9.57,1.85,13.43,1.85,2.27,0,4.6-.22,6.97-.67,2.37-.45,4.87-1.21,7.49-2.3,2.62-1.09,4.95-2.45,6.97-4.08,2.03-1.63,3.71-3.78,5.04-6.45,1.34-2.67,2-5.69,2-9.05,0-6-2-10.37-6.02-13.12Z"/>
  <path class="st0" d="M250.03,45.16c-6.83-5.98-16.15-8.98-27.96-8.98s-24.47,3.22-37.05,9.67c-8.74-6.44-20.18-9.67-34.29-9.67-12.76,0-26.55,3.22-41.37,9.66-1.58.69-2.58,2.26-2.58,3.98l.21,96.4c0,2.39,1.95,4.33,4.34,4.33h21.26c2.39,0,4.33-1.94,4.34-4.33l.22-78.29c4.91-2.61,10.2-3.91,15.88-3.91,7.05,0,12.27,1.84,15.65,5.52v76.67c0,2.4,1.94,4.34,4.34,4.34h21.24c2.4,0,4.34-1.94,4.34-4.34v-76.9c5.67-3.83,11.05-5.75,16.11-5.75,4.75,0,8.52,1.19,11.28,3.57,2.76,2.38,4.14,5.79,4.14,10.24v68.85c0,2.4,1.94,4.34,4.34,4.34h21.25c2.39,0,4.33-1.94,4.34-4.33l.22-75.53c0-11.05-3.42-19.56-10.24-25.55Z"/>
  <path class="st0" d="M400.72,45.16c-6.83-5.98-16.15-8.98-27.96-8.98s-24.47,3.22-37.05,9.67c-8.74-6.44-20.18-9.67-34.29-9.67-12.76,0-26.55,3.22-41.37,9.66-.6.26-1.12.65-1.53,1.13,5.58,5.85,8.39,13.74,8.39,23.73l-.21,75.51c0,2.4,1.94,4.35,4.34,4.35h12.24c2.39,0,4.33-1.94,4.34-4.33l.22-78.29c4.91-2.61,10.2-3.91,15.88-3.91,7.05,0,12.27,1.84,15.65,5.52v76.67c0,2.4,1.94,4.34,4.34,4.34h21.24c2.4,0,4.34-1.94,4.34-4.34v-76.9c5.67-3.83,11.05-5.75,16.11-5.75,4.75,0,8.52,1.19,11.28,3.57,2.76,2.38,4.14,5.79,4.14,10.24v68.85c0,2.4,1.94,4.34,4.34,4.34h21.39s.03,0,.05,0c.11,0,.22-.02.32-.03,2.21-.19,3.96-2.03,3.96-4.29l.08-75.53c0-11.05-3.42-19.56-10.24-25.55Z"/>
  <path class="st0" d="M100.26,48.95c.04-2.49-1.96-4.53-4.45-4.53h-6.51s-14.91,0-14.91,0c-2.45,0-4.44,1.98-4.45,4.43l-.44,72.27c-5.52,2.3-12.2,3.45-20.02,3.45-9.65,0-15.54-4.26-17.7-12.77-.51-2.03-.69-4.12-.68-6.21.08-16.23.13-60.89.16-64.92.02-2.47-1.98-4.47-4.45-4.47H5.29c-2.43,0-4.41,1.94-4.44,4.37l-.85,69.55c.13,13.89,3.99,24.09,11.61,30.57,7.75,6.6,19.75,9.9,36.02,9.9s34-2.79,49.41-8.66c.13-.05.26-.09.39-.14,1.69-.64,2.8-2.27,2.83-4.08V48.95Z"/>
  <path class="st0" d="M571.26,0h-25.22c-1.64,0-3.14.92-3.9,2.37l-38.87,75.14-20.15-38.91c-.76-1.46-2.26-2.37-3.9-2.37h-22.09c-3.33,0-5.45,3.57-3.86,6.5l27.46,50.67-27.46,50.67c-1.59,2.93.53,6.5,3.86,6.5h22.09c1.64,0,3.14-.92,3.9-2.37l20.15-38.91,20.15,38.91c.76,1.46,2.26,2.37,3.9,2.37h22.09c3.33,0,5.45-3.57,3.86-6.5l-27.46-50.67,48.02-89.07c1.05-1.95-.36-4.33-2.58-4.33Z"/>
  <path class="st0" d="M434.52,0h-4.24c-11.09,0-14.32,3.63-14.32,14.32v2.02c0,10.69,3.23,14.32,14.32,14.32h4.24c10.69,0,14.32-3.63,14.32-14.32v-2.02c0-10.69-3.63-14.32-14.32-14.32Z"/>
</svg>